<svg xmlns="http://www.w3.org/2000/svg" fill="none" viewBox="0 0 24 24" id="Msw-Icon--Streamline-Svg-Logos" height="24" width="24">
  <desc>
    Msw Icon Streamline Icon: https://streamlinehq.com
  </desc>
  <path fill="#70211d" d="M3.470925 2.870125c-1.0613075 0.86175 -1.75058 2.11205 -1.8972575 3.5028L0.25 18.9721l0.0068925 0.216875 0.003455 0.072925c0.0499175 0.793 0.3875175 1.530275 0.93771 2.081975 0.5984225 0.600075 1.4128425 0.945275 2.2756675 0.94455l12.35875 -0.0101 0.1293 -0.0019c1.259275 -0.041375 2.42825 -0.514075 3.337475 -1.336325 1.034775 -0.9358 1.6378 -2.2303 1.709225 -3.59915 0.071425 -1.36885 -0.393575 -2.71955 -1.3253 -3.758875L10.58705 3.43555l-0.087825 -0.0953c-0.8725 -0.9129525 -2.004 -1.470105 -3.220675 -1.59955 -1.384675 -0.14732 -2.746325 0.267665 -3.807625 1.129425Zm3.3172 3.520725c0.12465 0.01325 0.240625 0.07035 0.32735 0.16105l9.1078 10.15915c0.097 0.1082 0.14325 0.24255 0.1358 0.385175 -0.00745 0.142625 -0.067425 0.271375 -0.17515 0.3688 -0.09315 0.08425 -0.212975 0.1327 -0.3381 0.13685l-10.7715 0.009 1.1293 -10.7463c0.015175 -0.14385 0.08375 -0.2682 0.194325 -0.358 0.110575 -0.089775 0.246025 -0.131075 0.390175 -0.115725Z" stroke-width="0.25"></path>
  <path fill="#ed7344" d="m20.513025 0.25 -17.031075 0.0139375 -0.1386 0.00347 -0.078 0.0040075c-0.7207 0.0492325 -1.4048025 0.3397475 -1.9424175 0.82594 -0.6438625 0.582275 -1.0200225 1.3897875 -1.0644625 2.24147 -0.0444405 0.851675 0.24562 1.69425 0.825355 2.34095l15.23705 16.99655 0.0952 0.101225 0.055125 0.055575c0.518275 0.505425 1.190725 0.8222 1.910125 0.898725 0.861575 0.091675 1.710975 -0.1672 2.3713 -0.703375 0.66035 -0.536175 1.0903 -1.316125 1.181575 -2.181475l1.815925 -17.26715 -0.006925 -0.217825 -0.00345 -0.072925c-0.050125 -0.796305 -0.389125 -1.5366175 -0.9416 -2.0906175C22.197225 0.59592 21.379425 0.249294 20.513025 0.25Zm-1.5865 4.676825 -1.28675 12.23285L6.683 4.936775l12.243525 -0.00995Z" stroke-width="0.25"></path>
</svg>